<?xml version="1.0" standalone="yes"?>

<svg version="1.1" viewBox="0.0 0.0 100.0 538.9658792650919" fill="none" stroke="none" stroke-linecap="square" stroke-miterlimit="10" xmlns="http://www.w3.org/2000/svg" xmlns:xlink="http://www.w3.org/1999/xlink"><clipPath id="p.0"><path d="m0 0l100.0 0l0 538.9659l-100.0 0l0 -538.9659z" clip-rule="nonzero"></path></clipPath><g clip-path="url(#p.0)"><path fill="#000000" fill-opacity="0.0" d="m0 0l100.0 0l0 538.9659l-100.0 0z" fill-rule="nonzero"></path><path fill="#000000" fill-opacity="0.0" d="m33.842518 522.55383l0 0c8.570461 0 16.789898 -19.936798 22.850128 -55.42447c6.0602303 -35.4877 9.464832 -83.61932 9.464832 -133.80649l0 -127.679886l0 0c0 -104.509346 -14.467899 -189.23091 -32.31496 -189.23091z" fill-rule="nonzero"></path><path fill="#000000" fill-opacity="0.0" d="m33.842518 522.55383l0 0c8.570461 0 16.789898 -19.936798 22.850128 -55.42447c6.0602303 -35.4877 9.464832 -83.61932 9.464832 -133.80649l0 -127.679886l0 0c0 -104.509346 -14.467899 -189.23091 -32.31496 -189.23091" fill-rule="nonzero"></path><path stroke="#000000" stroke-width="3.0" stroke-linejoin="round" stroke-linecap="butt" d="m33.842518 522.55383l0 0c8.570461 0 16.789898 -19.936798 22.850128 -55.42447c6.0602303 -35.4877 9.464832 -83.61932 9.464832 -133.80649l0 -127.679886l0 0c0 -104.509346 -14.467899 -189.23091 -32.31496 -189.23091" fill-rule="nonzero"></path></g></svg>

